HIERARCHY
ROOT Hips
{
	OFFSET 0.000000 0.000000 0.000000
	CHANNELS 6 Xposition Yposition Zposition Yrotation Xrotation Zrotation
	JOINT Chest
	{
		OFFSET 0.000000 -0.009281 11.569106
		CHANNELS 3 Yrotation Xrotation Zrotation
		JOINT Chest2
		{
			OFFSET -0.000000 0.016865 9.269641
			CHANNELS 3 Yrotation Xrotation Zrotation
			JOINT Chest3
			{
				OFFSET -0.000000 0.000001 8.374491
				CHANNELS 3 Yrotation Xrotation Zrotation
				JOINT Chest4
				{
					OFFSET -0.000000 0.000001 8.374493
					CHANNELS 3 Yrotation Xrotation Zrotation
					JOINT Neck
					{
						OFFSET -0.000000 0.000002 12.152554
						CHANNELS 3 Yrotation Xrotation Zrotation
						JOINT Head
						{
							OFFSET -0.000000 0.040101 7.802319
							CHANNELS 3 Yrotation Xrotation Zrotation
							End Site
							{
								OFFSET -0.000000 0.020947 14.853096
							}
						}
					}
					JOINT RightCollar
					{
						OFFSET 2.894404 0.000001 6.791374
						CHANNELS 3 Yrotation Xrotation Zrotation
						JOINT RightShoulder
						{
							OFFSET 13.574684 0.000001 0.000000
							CHANNELS 3 Yrotation Xrotation Zrotation
							JOINT RightElbow
							{
								OFFSET 23.923903 0.000002 0.000000
								CHANNELS 3 Yrotation Xrotation Zrotation
								JOINT RightWrist
								{
									OFFSET 19.846718 0.012767 0.000000
									CHANNELS 3 Yrotation Xrotation Zrotation
									End Site
									{
										OFFSET 14.973145 0.000001 0.000000
									}
								}
							}
						}
					}
					JOINT LeftCollar
					{
						OFFSET -2.894404 0.000001 6.791374
						CHANNELS 3 Yrotation Xrotation Zrotation
						JOINT LeftShoulder
						{
							OFFSET -13.574684 -0.000001 0.000000
							CHANNELS 3 Yrotation Xrotation Zrotation
							JOINT LeftElbow
							{
								OFFSET -23.923903 -0.000002 0.000000
								CHANNELS 3 Yrotation Xrotation Zrotation
								JOINT LeftWrist
								{
									OFFSET -19.846718 0.012763 0.000000
									CHANNELS 3 Yrotation Xrotation Zrotation
									End Site
									{
										OFFSET -14.973145 -0.000001 0.000000
									}
								}
							}
						}
					}
				}
			}
		}
	}
	JOINT RightHip
	{
		OFFSET 9.469263 0.004643 0.045487
		CHANNELS 3 Yrotation Xrotation Zrotation
		JOINT RightKnee
		{
			OFFSET 0.000000 0.002661 -40.478676
			CHANNELS 3 Yrotation Xrotation Zrotation
			JOINT RightAnkle
			{
				OFFSET 0.000000 0.049106 -35.224068
				CHANNELS 3 Yrotation Xrotation Zrotation
				JOINT RightToe
				{
					OFFSET -0.000001 12.539529 -6.151390
					CHANNELS 3 Yrotation Xrotation Zrotation
					End Site
					{
						OFFSET -0.000001 5.044994 -1.291870
					}
				}
			}
		}
	}
	JOINT LeftHip
	{
		OFFSET -9.469263 0.004641 0.045487
		CHANNELS 3 Yrotation Xrotation Zrotation
		JOINT LeftKnee
		{
			OFFSET 0.000000 0.002661 -40.478676
			CHANNELS 3 Yrotation Xrotation Zrotation
			JOINT LeftAnkle
			{
				OFFSET 0.000000 0.049106 -35.224068
				CHANNELS 3 Yrotation Xrotation Zrotation
				JOINT LeftToe
				{
					OFFSET -0.000001 12.539529 -6.151390
					CHANNELS 3 Yrotation Xrotation Zrotation
					End Site
					{
						OFFSET -0.000001 5.044994 -1.291870
					}
				}
			}
		}
	}
}
MOTION
Frames: 8
Frame Time: 0.016667
6.912464 -24.012386 82.827156 -3.726353 1.718421 -120.986884 -1.942286 -4.526080 3.556684 -0.706288 -2.082613 1.552186 -0.706288 -2.082613 1.552184 -0.524370 -1.563768 1.161606 1.200148 -11.900549 -3.781214 0.671662 14.052336 -6.721220 10.076964 5.059326 -1.950455 42.959940 -15.963626 -14.322939 -26.756341 -61.040376 86.756359 -44.666787 40.715584 50.446486 -7.536566 5.324730 -6.927821 -40.237334 -8.556338 19.145276 -0.584545 -64.553101 -62.687312 29.687892 13.801865 -75.336502 -9.571615 6.186253 -9.173130 6.475210 -23.063367 -17.391110 -3.035882 9.822677 -3.698481 1.776253 0.033518 0.095124 -1.010340 1.253875 4.623329 0.074618 -10.208933 6.398931 -1.779636 2.263683 10.599461 0.962391 2.035927 0.041373 
6.586794 -23.430473 82.860214 -3.569191 1.753297 -120.593383 -1.921980 -4.461576 3.408959 -0.655849 -2.089784 1.497425 -0.655849 -2.089784 1.497423 -0.486713 -1.568959 1.120702 1.210618 -11.849173 -3.792837 0.684213 14.147775 -6.740719 10.028641 4.995042 -2.007453 42.911162 -15.705921 -14.302491 -26.780854 -60.956727 86.684144 -44.519170 40.598699 50.546986 -7.609894 5.256239 -6.938072 -40.129721 -8.902118 19.042899 -0.408978 -64.556619 -62.956763 29.970918 14.068081 -75.189584 -9.388120 6.716927 -6.886804 6.447216 -22.848345 -16.888688 -3.538117 9.316848 -5.753247 1.950887 -0.092339 0.214487 -1.007947 1.910788 2.772974 1.068951 -10.440009 2.287120 -2.342066 1.656435 10.752283 0.614547 1.871256 0.005302 
6.378711 -22.959517 82.918892 -3.480807 1.695933 -120.283183 -1.923981 -4.488161 3.270791 -0.599638 -2.085318 1.468243 -0.599638 -2.085319 1.468244 -0.444669 -1.565443 1.099019 1.235423 -11.846202 -3.795052 0.730583 14.154374 -6.734367 10.027100 5.138367 -2.058382 42.776122 -15.610379 -14.297092 -26.838499 -60.918935 86.711908 -44.368147 40.516720 50.651853 -7.603287 5.128313 -6.992229 -40.342762 -9.074976 19.027305 -0.690949 -64.361924 -62.537458 30.119587 14.339530 -75.121788 -9.170472 6.982114 -5.422615 5.854414 -22.411229 -15.645269 -2.918867 8.977486 -5.571484 1.332778 -0.301267 0.222108 -0.671305 2.334579 0.443699 1.991040 -10.303133 -1.892034 -2.912645 0.899898 10.257260 0.082608 1.726442 -0.028723 
6.087949 -22.507673 83.003014 -3.464093 1.505292 -119.967328 -1.860547 -4.521692 3.022877 -0.547051 -2.075899 1.458215 -0.547051 -2.075899 1.458211 -0.405291 -1.558241 1.091683 1.274845 -11.929040 -3.783108 0.815074 14.002842 -6.691792 10.005924 5.230990 -2.088212 42.599063 -15.623107 -14.177397 -26.948989 -60.909195 86.908966 -44.290160 40.499415 50.719182 -7.581600 5.059271 -6.957194 -40.703443 -9.060040 19.202869 -1.212530 -64.130149 -61.854439 30.132216 14.394601 -75.119056 -8.504195 6.880366 -5.373052 4.072550 -21.767178 -12.233896 -1.742315 9.019080 -4.509589 0.480236 -0.784490 0.145590 -0.242751 2.007792 -2.397343 2.838695 -9.303364 -5.454417 -3.389655 0.098340 9.013796 -0.474301 1.605340 -0.048051 
5.694768 -21.821905 83.084976 -2.922267 1.788552 -119.299308 -1.883252 -3.793199 2.355144 -0.526151 -2.051362 1.453196 -0.526151 -2.051363 1.453194 -0.389694 -1.539784 1.088013 1.335331 -12.090160 -3.769073 0.944167 13.706994 -6.633930 10.000486 5.289323 -2.084711 42.434493 -15.769752 -14.067212 -27.103178 -60.854329 87.191442 -44.328409 40.489372 50.689474 -7.626306 5.116979 -6.895423 -40.943272 -8.769760 19.563171 -1.418362 -64.109153 -61.552859 30.059908 14.314643 -75.135844 -7.757916 7.133573 -5.388935 2.451675 -21.229626 -8.072412 -0.769853 9.837769 -3.874519 -0.293279 -1.372944 0.140948 0.058639 2.563419 -6.384074 3.421176 -7.826392 -7.965274 -3.966595 -1.339356 7.465693 -0.873602 1.702227 -0.108905 
5.202293 -20.886059 83.134598 -2.714506 1.779274 -119.237126 -1.843795 -3.488493 2.281845 -0.539144 -2.002751 1.461994 -0.539145 -2.002751 1.461991 -0.399527 -1.503364 1.094614 1.424477 -12.257948 -3.777808 1.118230 13.399283 -6.607627 9.992034 5.397718 -2.183170 42.340790 -16.025328 -14.040166 -27.247774 -60.778288 87.464882 -44.329577 40.385061 50.653936 -7.637270 5.136155 -6.884271 -41.033779 -8.241839 19.846076 -1.302292 -64.240736 -61.639664 29.958658 14.159745 -75.250742 -6.588965 7.141855 -2.719366 1.242295 -20.930345 -5.487627 0.807500 11.070242 -2.512486 -1.359272 -1.966341 0.127029 0.439871 2.786243 -10.395125 3.687277 -6.497269 -9.560447 -4.651016 -2.336965 6.060128 -0.935015 1.622222 -0.176511 
4.791952 -19.828175 83.033836 -2.749882 1.619417 -119.425721 -1.804952 -3.504950 2.457784 -0.555602 -1.943189 1.486296 -0.555602 -1.943189 1.486299 -0.411937 -1.458756 1.112851 1.508462 -12.385215 -3.812225 1.269496 13.165779 -6.634138 9.982865 5.529781 -2.259446 42.261331 -16.157354 -14.114602 -27.328113 -60.822835 87.687294 -44.320179 40.251691 50.619157 -7.662974 5.311541 -6.798458 -41.056967 -8.013072 19.972851 -1.003252 -64.319352 -61.910638 29.847332 13.941677 -75.391676 -5.512178 7.111580 1.576984 0.373383 -20.728311 -3.496107 2.850647 12.211339 -1.165426 -2.471852 -2.534205 0.139527 0.797495 2.786599 -13.690086 3.668318 -5.399541 -10.341598 -5.467998 -2.758292 4.603870 -0.583786 1.239878 -0.273043 
4.631055 -19.233646 82.848122 -2.867440 1.386391 -119.601776 -1.719792 -3.652090 2.620197 -0.558235 -1.875471 1.508403 -0.558235 -1.875471 1.508400 -0.414011 -1.407991 1.129489 1.560301 -12.475305 -3.853789 1.354774 12.999694 -6.689042 9.996483 5.623683 -2.166314 42.123535 -16.132816 -14.302702 -27.243698 -61.015787 87.801802 -44.350344 40.173253 50.558016 -7.735631 5.588542 -6.596291 -41.095045 -8.220828 19.972639 -0.539692 -64.265038 -62.282501 29.662385 13.736046 -75.475066 -4.854720 7.277339 6.187654 0.097233 -20.699846 -1.990982 4.923071 12.997445 0.316726 -3.338884 -2.853482 0.247203 1.101467 2.539815 -15.658543 3.418560 -4.663254 -10.056321 -6.312289 -2.387408 2.556922 0.165061 0.475238 -0.199729 
